# xmcd
#
# Track frame offsets:
#	150
#	22737
#	44014
#	61564
#	79279
#	96575
#	114182
#	131736
#	162222
#	181236
#	191548
#
# Disc length: 2823 seconds
#
# Revision: 0
# Processed by: cddbd v1.5.1PL0 Copyright (c) Steve Scherf et al.
# Submitted via: dBpowerAMP V4.0
#
DISCID=880b050b
DTITLE=Robert Cray - Twenty
DYEAR=2005
DGENRE=Blues
TTITLE0=Poor johnny
TTITLE1=That aint love
TTITLE2=Does it really matter
TTITLE3=Fading away
TTITLE4=My last regret
TTITLE5=It doesnt show
TTITLE6=Im walking
TTITLE7=Twenty
TTITLE8=I know you will
TTITLE9=Forgot to be your lover
TTITLE10=Two steps from the end
EXTD=
EXTT0=
EXTT1=
EXTT2=
EXTT3=
EXTT4=
EXTT5=
EXTT6=
EXTT7=
EXTT8=
EXTT9=
EXTT10=
PLAYORDER=
